<svg width="151" height="36" viewBox="0 0 151 36" fill="none" xmlns="http://www.w3.org/2000/svg">
<path d="M19.492 8.864C19.492 10.328 19.156 11.672 18.484 12.896C17.812 14.096 16.78 15.068 15.388 15.812C13.996 16.556 12.268 16.928 10.204 16.928H6.388V26H0.232V0.727999H10.204C12.22 0.727999 13.924 1.076 15.316 1.772C16.708 2.468 17.752 3.428 18.448 4.652C19.144 5.876 19.492 7.28 19.492 8.864ZM9.736 12.032C10.912 12.032 11.788 11.756 12.364 11.204C12.94 10.652 13.228 9.872 13.228 8.864C13.228 7.856 12.94 7.076 12.364 6.524C11.788 5.972 10.912 5.696 9.736 5.696H6.388V12.032H9.736ZM21.4728 15.92C21.4728 13.856 21.8568 12.044 22.6248 10.484C23.4168 8.924 24.4848 7.724 25.8288 6.884C27.1728 6.044 28.6728 5.624 30.3288 5.624C31.7448 5.624 32.9808 5.912 34.0368 6.488C35.1168 7.064 35.9448 7.82 36.5208 8.756V5.912H42.6768V26H36.5208V23.156C35.9208 24.092 35.0808 24.848 34.0008 25.424C32.9448 26 31.7088 26.288 30.2928 26.288C28.6608 26.288 27.1728 25.868 25.8288 25.028C24.4848 24.164 23.4168 22.952 22.6248 21.392C21.8568 19.808 21.4728 17.984 21.4728 15.92ZM36.5208 15.956C36.5208 14.42 36.0888 13.208 35.2248 12.32C34.3848 11.432 33.3528 10.988 32.1288 10.988C30.9048 10.988 29.8608 11.432 28.9968 12.32C28.1568 13.184 27.7368 14.384 27.7368 15.92C27.7368 17.456 28.1568 18.68 28.9968 19.592C29.8608 20.48 30.9048 20.924 32.1288 20.924C33.3528 20.924 34.3848 20.48 35.2248 19.592C36.0888 18.704 36.5208 17.492 36.5208 15.956ZM67.6504 5.912L55.0504 35.54H48.4264L53.0344 25.316L44.8624 5.912H51.7384L56.3824 18.476L60.9904 5.912H67.6504ZM98.4965 0.727999V26H92.3405V10.844L86.6885 26H81.7205L76.0325 10.808V26H69.8765V0.727999H77.1485L84.2405 18.224L91.2605 0.727999H98.4965ZM112.067 26.288C110.099 26.288 108.323 25.868 106.739 25.028C105.179 24.188 103.943 22.988 103.031 21.428C102.143 19.868 101.699 18.044 101.699 15.956C101.699 13.892 102.155 12.08 103.067 10.52C103.979 8.936 105.227 7.724 106.811 6.884C108.395 6.044 110.171 5.624 112.139 5.624C114.107 5.624 115.883 6.044 117.467 6.884C119.051 7.724 120.299 8.936 121.211 10.52C122.123 12.08 122.579 13.892 122.579 15.956C122.579 18.02 122.111 19.844 121.175 21.428C120.263 22.988 119.003 24.188 117.395 25.028C115.811 25.868 114.035 26.288 112.067 26.288ZM112.067 20.96C113.243 20.96 114.239 20.528 115.055 19.664C115.895 18.8 116.315 17.564 116.315 15.956C116.315 14.348 115.907 13.112 115.091 12.248C114.299 11.384 113.315 10.952 112.139 10.952C110.939 10.952 109.943 11.384 109.151 12.248C108.359 13.088 107.963 14.324 107.963 15.956C107.963 17.564 108.347 18.8 109.115 19.664C109.907 20.528 110.891 20.96 112.067 20.96ZM131.605 20.924H140.317V26H124.729V21.104L133.081 10.988H124.801V5.912H140.137V10.808L131.605 20.924ZM146.585 26.288C145.505 26.288 144.617 25.976 143.921 25.352C143.249 24.704 142.913 23.912 142.913 22.976C142.913 22.016 143.249 21.212 143.921 20.564C144.617 19.916 145.505 19.592 146.585 19.592C147.641 19.592 148.505 19.916 149.177 20.564C149.873 21.212 150.221 22.016 150.221 22.976C150.221 23.912 149.873 24.704 149.177 25.352C148.505 25.976 147.641 26.288 146.585 26.288Z" fill="white"/>
</svg>
